<svg width="28" height="28" viewBox="0 0 28 28" fill="none" xmlns="http://www.w3.org/2000/svg">
<path d="M14 18.6667C13.077 18.6667 12.1748 18.393 11.4073 17.8802C10.6399 17.3674 10.0418 16.6386 9.68856 15.7859C9.33535 14.9331 9.24294 13.9948 9.423 13.0896C9.60307 12.1843 10.0475 11.3528 10.7002 10.7002C11.3528 10.0475 12.1843 9.60307 13.0896 9.423C13.9948 9.24294 14.9331 9.33536 15.7859 9.68856C16.6386 10.0418 17.3674 10.6399 17.8802 11.4073C18.393 12.1748 18.6667 13.077 18.6667 14C18.6667 15.2377 18.175 16.4247 17.2998 17.2998C16.4247 18.175 15.2377 18.6667 14 18.6667ZM14 11.6667C13.5385 11.6667 13.0874 11.8035 12.7037 12.0599C12.32 12.3163 12.0209 12.6807 11.8443 13.1071C11.6677 13.5334 11.6215 14.0026 11.7115 14.4552C11.8015 14.9078 12.0238 15.3236 12.3501 15.6499C12.6764 15.9762 13.0922 16.1985 13.5448 16.2885C13.9974 16.3785 14.4666 16.3323 14.8929 16.1557C15.3193 15.9791 15.6837 15.68 15.9401 15.2963C16.1965 14.9126 16.3333 14.4615 16.3333 14C16.3333 13.3812 16.0875 12.7877 15.6499 12.3501C15.2123 11.9125 14.6188 11.6667 14 11.6667ZM21 26.8333C21 24.9768 20.2625 23.1963 18.9497 21.8836C17.637 20.5708 15.8565 19.8333 14 19.8333C12.1435 19.8333 10.363 20.5708 9.05025 21.8836C7.7375 23.1963 7 24.9768 7 26.8333C7 27.1428 7.12292 27.4395 7.34171 27.6583C7.5605 27.8771 7.85725 28 8.16667 28C8.47609 28 8.77283 27.8771 8.99162 27.6583C9.21042 27.4395 9.33333 27.1428 9.33333 26.8333C9.33333 25.5957 9.825 24.4087 10.7002 23.5335C11.5753 22.6583 12.7623 22.1667 14 22.1667C15.2377 22.1667 16.4247 22.6583 17.2998 23.5335C18.175 24.4087 18.6667 25.5957 18.6667 26.8333C18.6667 27.1428 18.7896 27.4395 19.0084 27.6583C19.2272 27.8771 19.5239 28 19.8333 28C20.1428 28 20.4395 27.8771 20.6583 27.6583C20.8771 27.4395 21 27.1428 21 26.8333ZM21 9.33334C20.077 9.33334 19.1748 9.05964 18.4073 8.54686C17.6399 8.03408 17.0418 7.30525 16.6886 6.45253C16.3354 5.5998 16.2429 4.66149 16.423 3.75625C16.6031 2.851 17.0475 2.01948 17.7002 1.36684C18.3528 0.714192 19.1843 0.269735 20.0896 0.0896708C20.9948 -0.0903936 21.9331 0.00202198 22.7859 0.355231C23.6386 0.70844 24.3674 1.30658 24.8802 2.07401C25.393 2.84144 25.6667 3.74369 25.6667 4.66667C25.6667 5.90435 25.175 7.09133 24.2998 7.9665C23.4247 8.84167 22.2377 9.33334 21 9.33334ZM21 2.33334C20.5385 2.33334 20.0874 2.47018 19.7037 2.72657C19.32 2.98296 19.0209 3.34738 18.8443 3.77374C18.6677 4.2001 18.6215 4.66926 18.7115 5.12188C18.8015 5.5745 19.0238 5.99026 19.3501 6.31659C19.6764 6.64291 20.0922 6.86514 20.5448 6.95517C20.9974 7.0452 21.4666 6.99899 21.8929 6.82239C22.3193 6.64578 22.6837 6.34671 22.9401 5.963C23.1965 5.57928 23.3333 5.12816 23.3333 4.66667C23.3333 4.04783 23.0875 3.45434 22.6499 3.01675C22.2123 2.57917 21.6188 2.33334 21 2.33334ZM28 17.5C27.9981 15.6441 27.2601 13.8647 25.9477 12.5523C24.6353 11.2399 22.8559 10.5019 21 10.5C20.6906 10.5 20.3938 10.6229 20.175 10.8417C19.9562 11.0605 19.8333 11.3573 19.8333 11.6667C19.8333 11.9761 19.9562 12.2728 20.175 12.4916C20.3938 12.7104 20.6906 12.8333 21 12.8333C22.2377 12.8333 23.4247 13.325 24.2998 14.2002C25.175 15.0753 25.6667 16.2623 25.6667 17.5C25.6667 17.8094 25.7896 18.1062 26.0084 18.325C26.2272 18.5438 26.5239 18.6667 26.8333 18.6667C27.1428 18.6667 27.4395 18.5438 27.6583 18.325C27.8771 18.1062 28 17.8094 28 17.5ZM7 9.33334C6.07702 9.33334 5.17477 9.05964 4.40734 8.54686C3.63991 8.03408 3.04177 7.30525 2.68856 6.45253C2.33535 5.5998 2.24294 4.66149 2.423 3.75625C2.60307 2.851 3.04752 2.01948 3.70017 1.36684C4.35281 0.714192 5.18433 0.269735 6.08958 0.0896708C6.99482 -0.0903936 7.93313 0.00202198 8.78586 0.355231C9.63858 0.70844 10.3674 1.30658 10.8802 2.07401C11.393 2.84144 11.6667 3.74369 11.6667 4.66667C11.6667 5.90435 11.175 7.09133 10.2998 7.9665C9.42466 8.84167 8.23768 9.33334 7 9.33334ZM7 2.33334C6.53851 2.33334 6.08738 2.47018 5.70367 2.72657C5.31995 2.98296 5.02088 3.34738 4.84428 3.77374C4.66768 4.2001 4.62147 4.66926 4.7115 5.12188C4.80153 5.5745 5.02376 5.99026 5.35008 6.31659C5.67641 6.64291 6.09217 6.86514 6.54479 6.95517C6.99741 7.0452 7.46657 6.99899 7.89293 6.82239C8.31929 6.64578 8.68371 6.34671 8.94009 5.963C9.19649 5.57928 9.33333 5.12816 9.33333 4.66667C9.33333 4.04783 9.0875 3.45434 8.64992 3.01675C8.21233 2.57917 7.61884 2.33334 7 2.33334ZM2.33333 17.5C2.33333 16.2623 2.825 15.0753 3.70017 14.2002C4.57534 13.325 5.76232 12.8333 7 12.8333C7.30942 12.8333 7.60616 12.7104 7.82496 12.4916C8.04375 12.2728 8.16667 11.9761 8.16667 11.6667C8.16667 11.3573 8.04375 11.0605 7.82496 10.8417C7.60616 10.6229 7.30942 10.5 7 10.5C5.14405 10.5019 3.36465 11.2399 2.0523 12.5523C0.739946 13.8647 0.00185317 15.6441 0 17.5C0 17.8094 0.122916 18.1062 0.341709 18.325C0.560501 18.5438 0.857247 18.6667 1.16667 18.6667C1.47609 18.6667 1.77283 18.5438 1.99162 18.325C2.21042 18.1062 2.33333 17.8094 2.33333 17.5Z" fill="white"/>
</svg>
